<?xml version="1.0" standalone="no"?>
<!DOCTYPE svg PUBLIC "-//W3C//DTD SVG 20010904//EN"
 "http://www.w3.org/TR/2001/REC-SVG-20010904/DTD/svg10.dtd">
<svg version="1.0" xmlns="http://www.w3.org/2000/svg"
 width="700.000000pt" height="700.000000pt" viewBox="0 0 700.000000 700.000000"
 preserveAspectRatio="xMidYMid meet">
<metadata>
Created by potrace 1.11, written by Peter Selinger 2001-2013
</metadata>
<g transform="translate(0.000000,700.000000) scale(0.100000,-0.100000)"
fill="#000000" stroke="none">
<path d="M1107 6109 c-106 -17 -203 -92 -253 -197 -24 -49 -28 -72 -31 -157
-1 -58 3 -128 11 -166 8 -36 17 -83 20 -105 4 -21 8 -46 11 -54 2 -8 6 -26 9
-40 22 -129 138 -695 147 -717 6 -15 15 -37 19 -48 95 -256 216 -454 390 -635
14 -15 63 -68 110 -120 47 -51 96 -105 110 -120 247 -266 252 -273 282 -358
25 -71 29 -152 11 -233 -30 -140 -42 -209 -48 -270 -3 -35 -8 -82 -10 -104
-30 -288 -22 -646 20 -844 41 -196 104 -319 289 -571 51 -69 111 -160 134
-204 63 -118 126 -200 237 -311 155 -153 282 -233 449 -283 58 -18 89 -20 195
-17 69 2 135 6 146 8 128 27 151 28 215 12 121 -30 175 -37 255 -31 126 9 272
54 381 118 102 58 254 191 337 293 37 46 121 177 163 252 51 93 86 143 167
237 38 45 77 96 85 113 9 18 19 33 24 33 4 0 8 4 8 10 0 5 13 39 30 74 28 61
55 157 66 236 3 19 7 40 9 47 2 6 7 36 10 65 4 29 15 107 25 173 15 97 18 161
15 340 -2 121 -6 231 -9 245 -2 14 -7 48 -10 75 -8 65 -12 87 -43 225 -14 63
-26 135 -27 159 -6 104 34 214 104 291 23 25 70 77 105 115 34 39 76 84 91
100 16 17 67 73 114 124 47 52 101 110 120 131 180 190 311 410 389 650 18 55
53 204 67 290 2 14 7 36 10 50 3 14 8 36 10 50 2 14 13 68 24 120 19 97 65
335 73 380 3 14 11 45 18 70 7 25 13 90 13 145 1 91 -2 105 -28 160 -36 73
-98 136 -163 166 -36 17 -70 23 -138 25 -97 3 -144 -12 -214 -66 -51 -39 -343
-272 -371 -296 -14 -12 -59 -50 -100 -84 -41 -34 -84 -69 -95 -78 -11 -9 -45
-37 -75 -62 -30 -25 -57 -47 -60 -50 -3 -3 -27 -24 -55 -45 -86 -69 -198 -185
-321 -335 -80 -98 -245 -322 -270 -367 -15 -26 -30 -52 -34 -58 -4 -5 -17 -27
-29 -48 -102 -184 -213 -357 -250 -394 -50 -50 -117 -87 -175 -97 -45 -9 -567
-9 -611 -1 -47 9 -129 54 -169 93 -20 19 -53 62 -72 96 -19 34 -49 84 -66 111
-17 28 -36 59 -42 70 -9 16 -136 226 -199 329 -14 23 -8 14 -94 131 -143 194
-274 331 -503 528 -96 82 -189 161 -205 176 -26 22 -70 59 -174 146 -13 11
-29 25 -35 31 -6 5 -42 37 -81 70 -212 180 -314 226 -458 203z"/>
</g>
</svg>
